<svg width="307" height="47" viewBox="0 0 307 47" fill="none" xmlns="http://www.w3.org/2000/svg">
<g clip-path="url(#clip0_2102_49)">
<path fill-rule="evenodd" clip-rule="evenodd" d="M193.564 10.1292H196.928V6.78159H200.287V3.43864H203.639V0.0957031H193.564V10.1292Z" fill="#0B35F1"/>
<path fill-rule="evenodd" clip-rule="evenodd" d="M243.96 6.78159H240.601V3.43863H237.237V0.0957031H213.729V3.43863H210.371V6.78159H206.997V10.1292H203.658V36.8681H206.997V40.2157H210.361V43.5586H213.72V46.9014H237.228V43.5586H240.592V40.2157H243.95V36.8726H247.322V10.1292H243.96V6.78159ZM237.247 30.1869H233.889V33.525H230.53V36.8681H220.455V33.525H217.097V30.1821H213.733V16.8104H217.097V13.4675H220.455V10.1245H230.53V13.4675H233.889V16.8104H237.247V30.1869Z" fill="#0B35F1"/>
<path fill-rule="evenodd" clip-rule="evenodd" d="M200.287 40.2187H196.928V36.8711H193.564V46.8999H203.639V43.557H200.287V40.2187Z" fill="#0B35F1"/>
<path fill-rule="evenodd" clip-rule="evenodd" d="M303.483 40.2187H300.125V43.557H296.771V46.8999H306.845V36.8711H303.483V40.2187Z" fill="#0B35F1"/>
<path fill-rule="evenodd" clip-rule="evenodd" d="M296.771 0.0957031V3.43863H300.125V6.77694H303.483V10.1245H306.845V0.0957031H296.771Z" fill="#0B35F1"/>
<path fill-rule="evenodd" clip-rule="evenodd" d="M294.331 6.78159H290.972V3.43863H287.614V0.0957031H260.742V3.43863H257.384V6.78159H254.021V10.1292H254.039V23.5009H257.397V26.8438H264.119V30.1869H284.269V33.5298H280.911V36.8726H267.478V33.5298H264.119V30.1869H254.025V40.2202H257.309V43.5631H260.635V46.9062H287.507V43.5631H290.894V40.2202H294.317V26.8438H290.986V23.5009H287.627V20.1533H267.478V16.8104H264.119V13.4721H267.478V10.1292H280.911V13.4721H284.269V16.815H294.35V10.1292H294.331V6.78159Z" fill="#0B35F1"/>
<path fill-rule="evenodd" clip-rule="evenodd" d="M12.4856 35.4701V29.5597L13.6703 28.3758H30.9008V18.138H13.4278L12.4856 17.1955V11.285L13.2785 10.4957H36.3442V0.109375H0.0361328V46.8595H37.0112V36.4685H13.4837L12.4856 35.4701Z" fill="#0B35F1"/>
<path fill-rule="evenodd" clip-rule="evenodd" d="M52.5866 35.4787V0.150391H39.9131V46.9004H75.8435V36.5094H53.6267L52.5866 35.4787Z" fill="#0B35F1"/>
<path d="M91.1098 0.150391H78.4365V46.9052H91.1098V0.150391Z" fill="#0B35F1"/>
<path fill-rule="evenodd" clip-rule="evenodd" d="M111.032 35.1445L133.09 9.94705V0.150391H94.0996V10.5414H115.901V11.7996L93.8711 37.3314V46.9052H133.682V36.5142H111.032V35.1445Z" fill="#0B35F1"/>
<path fill-rule="evenodd" clip-rule="evenodd" d="M153.964 0.150391L135.25 46.9052H147.998L151.165 38.6963L152.639 37.8514H168.778L170.135 38.6313L173.34 46.9004H186.834L168.12 0.150391H153.964ZM164.963 28.4167H156.483L155.503 27.4419L160.126 14.6132H161.212L165.877 27.5207L164.963 28.4167Z" fill="#0B35F1"/>
</g>
<defs>
<clipPath id="clip0_2102_49">
<rect width="307" height="47" fill="white"/>
</clipPath>
</defs>
</svg>
