<svg width="302" height="90" viewBox="0 0 302 90" fill="none" xmlns="http://www.w3.org/2000/svg">
<g clip-path="url(#clip0_2102_26)">
<path d="M61.016 79.5501C61.1825 83.9167 58.4622 88.04 54.107 89.4534C49.9749 90.7967 45.6097 89.3101 43.1058 86.0567C42.8261 85.5967 42.5331 85.1401 42.2234 84.6967C41.9404 84.1734 41.7007 83.6134 41.5076 83.0267C39.7995 77.7667 42.673 72.1201 47.9272 70.4134C53.1814 68.7034 58.8218 71.5801 60.5266 76.8401C60.8163 77.7401 60.9761 78.6501 61.0127 79.5501H61.016Z" fill="#595959"/>
<path d="M61.0196 9.82631C60.9763 10.323 60.9497 10.8296 60.9464 11.3363C60.8731 11.9563 60.7333 12.5796 60.5335 13.1996C58.8587 18.3596 53.408 21.223 48.2437 19.723C48.2238 19.7163 48.1971 19.7063 48.1738 19.703C47.9907 19.6396 47.8109 19.5796 47.6211 19.5196C47.5944 19.5096 47.5678 19.4996 47.5412 19.493C42.5367 17.633 39.8463 12.1396 41.5112 7.01297C41.7675 6.22964 42.1038 5.49631 42.5234 4.82631C42.53 4.81964 42.5334 4.80964 42.54 4.79964C42.6432 4.65631 42.7331 4.50964 42.823 4.36631C45.2803 0.846311 49.8286 -0.807022 54.1139 0.582978C58.2494 1.92631 60.9098 5.71297 61.023 9.82297L61.0196 9.82631Z" fill="#595959"/>
<path d="M15.909 15.3471C20.3408 18.5671 21.3496 24.7371 18.2164 29.2038C18.1831 29.2471 18.1565 29.2905 18.1265 29.3338C18.0999 29.3705 18.0733 29.4071 18.0466 29.4405C14.7769 33.8238 8.59039 34.7705 4.15528 31.5471C3.48269 31.0538 2.88669 30.4971 2.37392 29.8871C-0.519553 26.4538 -0.815896 21.3638 1.94439 17.5671C4.50157 14.0438 8.91003 12.6805 12.8557 13.8438C13.3385 14.0471 13.8279 14.2338 14.334 14.4105C14.8801 14.6671 15.4095 14.9771 15.9123 15.3471H15.909Z" fill="#595959"/>
<path d="M18.1234 60.7106C21.3698 65.1873 20.3809 71.444 15.9092 74.6973C15.1334 75.2606 14.3043 75.7006 13.4419 76.0106C13.4252 76.0173 13.4053 76.0273 13.3886 76.0306C9.31645 77.4873 4.60831 76.164 1.93793 72.4806C-0.625905 68.9506 -0.54599 64.3006 1.80475 60.904C2.13106 60.5306 2.44737 60.144 2.74038 59.7406L2.77367 59.7073C3.18988 59.2673 3.6527 58.8606 4.15548 58.4973C8.62388 55.2473 14.8736 56.2373 18.1267 60.7106H18.1234Z" fill="#595959"/>
<path d="M78.6134 35.2593C77.8908 35.0893 77.135 35.0027 76.3592 35.0027C70.832 35.0027 66.3602 39.486 66.3602 45.0127H66.3536C66.3536 33.2659 58.7719 23.2926 48.2402 19.7226C53.4045 21.2226 58.8552 18.3559 60.53 13.1993C60.7264 12.5793 60.8663 11.9559 60.9429 11.3359C60.8796 13.9926 61.2592 16.7026 62.1249 19.3692C64.7187 27.3726 71.0817 33.1092 78.61 35.256L78.6134 35.2593Z" fill="#595959"/>
<path d="M76.3587 55.0262C77.0313 55.0262 77.6906 54.9562 78.3332 54.8295C75.7594 55.5895 73.2754 56.7962 70.988 58.4629C64.0523 63.5095 60.5695 71.5595 61.019 79.5529H61.0123C60.9757 78.6529 60.8159 77.7429 60.5262 76.8429C58.8181 71.5829 53.181 68.7062 47.9268 70.4162V70.4095C58.6216 66.9395 66.3531 56.8829 66.3531 45.0195H66.3597C66.3597 50.5529 70.8315 55.0295 76.3587 55.0295V55.0262Z" fill="#595959"/>
<path d="M47.9266 70.4076V70.4143C42.6724 72.1243 39.7989 77.7676 41.5071 83.0276C41.7002 83.6176 41.9399 84.1743 42.2229 84.6976C40.7179 82.5509 38.84 80.6043 36.6058 78.9776C29.6568 73.9276 20.9065 73.0976 13.4414 76.0109C14.3038 75.7009 15.1329 75.2609 15.9087 74.6976C20.3804 71.4476 21.3727 65.1909 18.1229 60.7109C22.9709 67.3743 30.8256 71.7076 39.6924 71.7076C42.5659 71.7076 45.3328 71.2509 47.9266 70.4076Z" fill="#595959"/>
<path d="M42.5233 4.83008C42.1071 5.50008 41.7674 6.23341 41.5111 7.01674C39.8462 12.1434 42.5399 17.6401 47.5411 19.4967C45.0571 18.7367 42.4267 18.3234 39.6931 18.3234C30.8795 18.3234 23.0681 22.6034 18.2168 29.2034C21.3533 24.7367 20.3411 18.5668 15.9093 15.3468C15.4065 14.9768 14.8771 14.6668 14.3311 14.4101C16.8183 15.2734 19.4854 15.7401 22.2623 15.7401C30.7096 15.7401 38.1714 11.4001 42.5266 4.83344L42.5233 4.83008Z" fill="#595959"/>
<path d="M18.0436 29.4403C14.8871 33.8237 13.0292 39.207 13.0292 45.017C13.0292 50.827 14.9171 56.307 18.1235 60.7103C14.8705 56.237 8.62069 55.247 4.15228 58.497C3.64951 58.8603 3.19001 59.267 2.77048 59.707C4.35539 57.607 5.62399 55.2137 6.47972 52.5737C9.09683 44.517 7.27217 36.0703 2.36426 29.8869L2.37091 29.8803C2.88368 30.4903 3.47969 31.0469 4.15228 31.5403C8.58739 34.7637 14.7739 33.817 18.0436 29.4336V29.4403Z" fill="#595959"/>
<path d="M66.3535 45.0161C70.3824 42.3028 73.5089 39.2728 72.2969 36.9495L73.3824 35.4561C61.016 40.1928 54.6064 38.9961 47.1347 33.9395C46.5953 36.9461 53.0215 42.0228 53.0249 45.0161C53.0249 48.0095 46.5986 53.0895 47.1347 56.0928C54.6064 51.0361 61.016 49.8395 73.3824 54.5761L72.2969 53.0828C73.5089 50.7561 70.3824 47.7261 66.3535 45.0161Z" fill="#595959"/>
<path d="M79.3627 35.4639C83.4249 36.7372 86.3616 40.5306 86.3616 45.0139C86.3616 49.4972 83.5214 53.1572 79.5758 54.4939C79.1596 54.5906 78.7467 54.7039 78.3338 54.8272C77.6912 54.9572 77.0352 55.0239 76.3593 55.0239C70.8321 55.0239 66.3604 50.5472 66.3604 45.0139C66.3604 39.4806 70.8321 35.0039 76.3593 35.0039C77.1351 35.0039 77.891 35.0906 78.6135 35.2606C78.8532 35.3306 79.0963 35.3939 79.336 35.4539C79.346 35.4606 79.356 35.4606 79.3627 35.4639Z" fill="#595959"/>
<path d="M39.6926 58.366C47.0575 58.366 53.0279 52.389 53.0279 45.016C53.0279 37.643 47.0575 31.666 39.6926 31.666C32.3278 31.666 26.3574 37.643 26.3574 45.016C26.3574 52.389 32.3278 58.366 39.6926 58.366Z" fill="#595959"/>
<path d="M123.82 53.2141C120.573 53.2141 117.763 51.3441 116.401 48.6241C115.842 47.5075 115.525 46.2441 115.525 44.9108C115.525 43.5775 115.842 42.3141 116.401 41.1975C117.763 38.4775 120.573 36.6075 123.82 36.6075C127.066 36.6075 129.876 38.4775 131.238 41.1975L138.66 37.4808C135.936 32.0374 130.312 28.3008 123.816 28.3008C117.32 28.3008 111.696 32.0374 108.973 37.4808C107.854 39.7175 107.225 42.2408 107.225 44.9108C107.225 47.5808 107.854 50.1041 108.973 52.3408C111.696 57.7841 117.32 61.5208 123.816 61.5208C130.312 61.5208 135.936 57.7841 138.66 52.3408L131.238 48.6241C129.876 51.3441 127.066 53.2141 123.82 53.2141Z" fill="#595959"/>
<path d="M159.041 61.5208C149.878 61.5208 142.449 54.0841 142.449 44.9108C142.449 35.7375 149.878 28.3008 159.041 28.3008C168.204 28.3008 175.633 35.7375 175.633 44.9108C175.633 54.0841 168.204 61.5208 159.041 61.5208ZM167.338 44.9108C167.338 40.3241 163.626 36.6041 159.041 36.6041C154.456 36.6041 150.743 40.3208 150.743 44.9108C150.743 49.5008 154.456 53.2175 159.041 53.2175C163.626 53.2175 167.338 49.5008 167.338 44.9108Z" fill="#595959"/>
<path d="M285.188 61.5208C276.025 61.5208 268.597 54.0841 268.597 44.9108C268.597 35.7375 276.025 28.3008 285.188 28.3008C294.352 28.3008 301.78 35.7375 301.78 44.9108C301.78 54.0841 294.352 61.5208 285.188 61.5208ZM293.486 44.9108C293.486 40.3241 289.773 36.6041 285.188 36.6041C280.603 36.6041 276.891 40.3208 276.891 44.9108C276.891 49.5008 280.603 53.2175 285.188 53.2175C289.773 53.2175 293.486 49.5008 293.486 44.9108Z" fill="#595959"/>
<path d="M240.015 64.6191C240.015 69.2058 243.728 72.9258 248.313 72.9258C252.898 72.9258 256.61 69.2091 256.61 64.6191H264.908C264.908 73.7925 257.48 81.2291 248.316 81.2291C239.153 81.2291 231.725 73.7925 231.725 64.6191H240.022H240.015Z" fill="#595959"/>
<path d="M204.797 17.2891V30.5457C202.347 29.1157 199.497 28.2991 196.46 28.2991C187.297 28.2991 179.868 35.7357 179.868 44.909C179.868 54.0824 187.297 61.519 196.46 61.519C205.623 61.519 213.052 54.0824 213.052 44.909V17.2891H204.797ZM196.46 53.2557C191.855 53.2557 188.122 49.519 188.122 44.909C188.122 40.299 191.855 36.5624 196.46 36.5624C201.065 36.5624 204.797 40.299 204.797 44.909C204.797 49.519 201.065 53.2557 196.46 53.2557Z" fill="#595959"/>
<path d="M226.882 29.6602H218.585V61.5202H226.882V29.6602Z" fill="#595959"/>
<path d="M222.744 16.4395H222.717C219.967 16.4395 217.739 18.6694 217.739 21.4228C217.739 24.1795 219.967 26.4095 222.717 26.4095H222.744C225.494 26.4095 227.722 24.1795 227.722 21.4261C227.722 18.6695 225.494 16.4395 222.744 16.4395Z" fill="#595959"/>
<path d="M248.309 61.5208C239.146 61.5208 231.718 54.0841 231.718 44.9108C231.718 35.7375 239.146 28.3008 248.309 28.3008C257.473 28.3008 264.901 35.7375 264.901 44.9108C264.901 54.0841 257.473 61.5208 248.309 61.5208ZM256.607 44.9108C256.607 40.3241 252.894 36.6041 248.309 36.6041C243.725 36.6041 240.012 40.3208 240.012 44.9108C240.012 49.5008 243.725 53.2175 248.309 53.2175C252.894 53.2175 256.607 49.5008 256.607 44.9108Z" fill="#595959"/>
<path d="M161.708 17.2891L169.516 17.2991L163.03 24.2091L156.953 24.1991L161.708 17.2891Z" fill="#595959"/>
</g>
<defs>
<clipPath id="clip0_2102_26">
<rect width="302" height="90" fill="white"/>
</clipPath>
</defs>
</svg>
