<svg width="572" height="50" viewBox="0 0 572 50" fill="none" xmlns="http://www.w3.org/2000/svg">
<g clip-path="url(#clip0_2102_63)">
<mask id="mask0_2102_63" style="mask-type:luminance" maskUnits="userSpaceOnUse" x="0" y="0" width="572" height="50">
<path d="M572 0H0V50H572V0Z" fill="white"/>
</mask>
<g mask="url(#mask0_2102_63)">
<g style="mix-blend-mode:luminosity">
<mask id="mask1_2102_63" style="mask-type:luminance" maskUnits="userSpaceOnUse" x="75" y="0" width="496" height="50">
<g style="mix-blend-mode:luminosity">
<path d="M570.226 0.757812H75.7822V49.2425H570.226V0.757812Z" fill="white"/>
</g>
</mask>
<g mask="url(#mask1_2102_63)">
<path d="M75.7822 48.8672H84.8879V30.8858H119.247V21.5983H84.8879V12.9048H119.247V3.61719H75.7822V48.8672Z" fill="#595959"/>
<path d="M163.948 3.61719H136.824C134.298 3.6193 131.875 4.64385 130.088 6.46594C128.301 8.28802 127.297 10.7587 127.295 13.3355V39.1527C127.297 41.7286 128.302 44.198 130.088 46.0191C131.874 47.8402 134.296 48.8647 136.822 48.8672H163.946C166.471 48.8641 168.892 47.84 170.678 46.0189C172.464 44.1975 173.468 41.7283 173.471 39.1527V13.3355C173.469 10.7598 172.465 8.29016 170.68 6.46827C168.895 4.64635 166.474 3.62102 163.948 3.61719ZM164.367 12.9048V39.5794H136.401V12.9048H164.367Z" fill="#595959"/>
<path d="M218.604 31.7745C218.602 33.8436 217.795 35.8275 216.36 37.2906C214.925 38.7539 212.979 39.5767 210.95 39.5787H198.287C196.259 39.5753 194.315 38.752 192.88 37.2889C191.446 35.8262 190.64 33.8431 190.637 31.7745V3.61523H181.532V33.6184C181.537 37.66 183.113 41.535 185.915 44.3931C188.717 47.2514 192.516 48.8595 196.479 48.8653H212.753C216.718 48.862 220.52 47.2548 223.324 44.3964C226.128 41.5381 227.706 37.662 227.711 33.6184V3.61523H218.604V31.7745Z" fill="#595959"/>
<path d="M272.854 39.5775H271.162L254.076 6.8121C253.574 5.84577 252.822 5.03749 251.903 4.47421C250.983 3.91091 249.931 3.61393 248.858 3.61524H241.688C240.122 3.61735 238.619 4.25307 237.512 5.38307C236.404 6.51302 235.781 8.04491 235.779 9.64274V48.8653H244.884V12.9055H246.939L264.018 45.6698C264.52 46.6364 265.271 47.4453 266.191 48.0087C267.11 48.5723 268.163 48.8695 269.236 48.8678H276.047C277.613 48.8664 279.116 48.2312 280.225 47.1014C281.334 45.9717 281.957 44.4395 281.957 42.8414V3.61524H272.852L272.854 39.5775Z" fill="#595959"/>
<path d="M321.254 3.61719H290.028V48.8672H321.254C325.217 48.8638 329.02 47.2569 331.825 44.3986C334.628 41.5402 336.205 37.6639 336.211 33.6202V18.8677C336.208 14.8237 334.631 10.9465 331.825 8.08722C329.02 5.22797 325.217 3.62033 321.254 3.61719ZM299.134 12.9048H319.445C321.475 12.9072 323.42 13.7303 324.855 15.1934C326.29 16.6564 327.097 18.6401 327.099 20.7092V31.7764C327.097 33.8455 326.29 35.8291 324.855 37.2922C323.42 38.7552 321.475 39.5786 319.445 39.5808H299.134V12.9048Z" fill="#595959"/>
<path d="M382.738 3.61523H351.992C349.946 3.61768 347.983 4.44782 346.536 5.92354C345.09 7.39926 344.275 9.40004 344.275 11.4868V48.8653H353.381V34.1125H381.346V48.8653H390.452V11.4895C390.452 9.40276 389.638 7.40193 388.191 5.92579C386.745 4.44965 384.784 3.61873 382.738 3.61523ZM381.349 12.9028V24.8248H353.384V12.9028H381.349Z" fill="#595959"/>
<path d="M398.525 12.9048H416.159V48.8672H425.265V12.9048H442.896V3.61719H398.525V12.9048Z" fill="#595959"/>
<path d="M460.53 3.61719H451.422V48.8672H460.53V3.61719Z" fill="#595959"/>
<path d="M506.22 3.61719H479.096C476.568 3.6193 474.144 4.64385 472.36 6.46594C470.573 8.28802 469.568 10.7587 469.565 13.3355V39.1527C469.568 41.7286 470.573 44.198 472.36 46.0191C474.144 47.8402 476.566 48.8647 479.091 48.8672H506.217C508.742 48.8641 511.161 47.84 512.948 46.0189C514.734 44.1975 515.737 41.7283 515.742 39.1527V13.3355C515.742 10.7598 514.737 8.29016 512.953 6.46827C511.163 4.64635 508.742 3.62102 506.22 3.61719ZM506.639 12.9048V39.5794H478.671V12.9048H506.639Z" fill="#595959"/>
<path d="M560.889 3.61524V39.5748H559.195L542.108 6.81344C541.607 5.84657 540.858 5.0378 539.937 4.47421C539.02 3.91063 537.963 3.61363 536.892 3.61524H529.723C528.154 3.61732 526.653 4.25307 525.545 5.38307C524.439 6.51302 523.815 8.04491 523.812 9.64274V48.8653H532.918V12.9055H534.975L552.053 45.6698C552.551 46.6362 553.303 47.4445 554.227 48.0081C555.144 48.5714 556.199 48.8687 557.269 48.8678H564.081C565.65 48.8659 567.151 48.2306 568.257 47.1009C569.368 45.9714 569.989 44.4395 569.992 42.8414V3.61524H560.889Z" fill="#595959"/>
</g>
</g>
<mask id="mask2_2102_63" style="mask-type:luminance" maskUnits="userSpaceOnUse" x="0" y="0" width="56" height="52">
<path d="M55.9198 0H0V51.0953H55.9198V0Z" fill="white"/>
</mask>
<g mask="url(#mask2_2102_63)">
<path d="M55.6316 40.285L46.4006 50.3994C46.1999 50.6192 45.9572 50.7944 45.6873 50.9142C45.4173 51.0339 45.1264 51.0956 44.8323 51.0953H1.07168C0.862873 51.0953 0.65862 51.0331 0.48401 50.9161C0.3094 50.7992 0.172044 50.6325 0.0888163 50.4369C0.0055877 50.2411 -0.0198865 50.025 0.0155236 49.8147C0.0509336 49.6044 0.145685 49.4094 0.288138 49.2533L9.52631 39.1392C9.72645 38.92 9.96849 38.745 10.2374 38.6253C10.5064 38.5058 10.7965 38.4436 11.0898 38.4431H54.848C55.0569 38.4433 55.2612 38.5056 55.4358 38.6225C55.6104 38.7394 55.7477 38.9061 55.831 39.1017C55.9141 39.2972 55.9397 39.5136 55.9043 39.7239C55.8689 39.9339 55.7741 40.1292 55.6316 40.285ZM46.4006 19.9174C46.1999 19.6977 45.9572 19.5225 45.6873 19.4028C45.4173 19.2831 45.1264 19.2214 44.8323 19.2216H1.07168C0.862873 19.2216 0.65862 19.2839 0.48401 19.4009C0.3094 19.5179 0.172044 19.6844 0.0888163 19.8801C0.0055877 20.0757 -0.0198865 20.2919 0.0155236 20.5022C0.0509336 20.7124 0.145685 20.9075 0.288138 21.0635L9.52631 31.1778C9.72645 31.3969 9.96849 31.5719 10.2374 31.6914C10.5064 31.8111 10.7965 31.8733 11.0898 31.8736H54.848C55.0569 31.8736 55.2612 31.8114 55.4358 31.6944C55.6104 31.5775 55.7477 31.4108 55.831 31.2153C55.9141 31.0197 55.9397 30.8033 55.9043 30.5931C55.8689 30.3831 55.7741 30.1878 55.6316 30.0319L46.4006 19.9174ZM1.07168 12.6522H44.8323C45.1264 12.6523 45.4173 12.5906 45.6873 12.4709C45.9572 12.3512 46.1999 12.176 46.4006 11.9563L55.6316 1.84186C55.7741 1.68589 55.8689 1.49081 55.9043 1.28057C55.9397 1.07034 55.9141 0.854125 55.831 0.658478C55.7477 0.462831 55.6104 0.296292 55.4358 0.179307C55.2612 0.0623311 55.0569 8.79389e-06 54.848 0H11.0898C10.7965 0.000510044 10.5064 0.0625333 10.2374 0.182227C9.96849 0.301919 9.72645 0.476744 9.52631 0.695869L0.290519 10.8103C0.148204 10.9661 0.0534948 11.161 0.0180042 11.371C-0.0174862 11.581 0.00778582 11.797 0.0907214 11.9926C0.173656 12.1881 0.310648 12.3547 0.484898 12.4718C0.659148 12.5891 0.86308 12.6517 1.07168 12.6522Z" fill="#595959"/>
</g>
</g>
</g>
<defs>
<clipPath id="clip0_2102_63">
<rect width="572" height="50" fill="white"/>
</clipPath>
</defs>
</svg>
