<svg width="425" height="65" viewBox="0 0 425 65" fill="none" xmlns="http://www.w3.org/2000/svg">
<path d="M21.3533 51.8062C18.5463 51.8062 15.8646 51.5577 13.3082 51.0608C10.7518 50.5638 8.47113 49.8184 6.46613 48.8245C4.46113 47.781 2.88219 46.4889 1.72931 44.9484C0.576438 43.4079 0 41.594 0 39.5069C0 39.3081 0 39.1342 0 38.9851C0 38.7863 0.0250626 38.5875 0.0751877 38.3888H13.0074C13.0074 38.5378 13.0074 38.6869 13.0074 38.836C13.0074 38.9354 13.0074 39.0348 13.0074 39.1342C13.0074 40.1778 13.4084 41.0474 14.2104 41.7431C15.0124 42.3891 16.04 42.8861 17.2931 43.2339C18.5964 43.5321 19.9748 43.6812 21.4285 43.6812C22.6315 43.6812 23.8846 43.6067 25.1878 43.4576C26.5412 43.2588 27.669 42.9109 28.5713 42.414C29.5236 41.917 29.9998 41.1468 29.9998 40.1032C29.9998 39.0099 29.3983 38.2148 28.1953 37.7179C27.0425 37.2209 25.4886 36.8234 23.5337 36.5252C21.5788 36.2271 19.3984 35.8792 16.9924 35.4817C14.9874 35.1338 13.0325 34.7114 11.1278 34.2144C9.27313 33.6678 7.56888 32.9721 6.015 32.1273C4.51125 31.2328 3.30825 30.0898 2.406 28.6984C1.50375 27.2573 1.05263 25.4931 1.05263 23.406C1.05263 21.0703 1.57894 19.1074 2.63156 17.5172C3.73432 15.8773 5.23807 14.5604 7.14282 13.5665C9.04757 12.5726 11.2531 11.8521 13.7593 11.4048C16.3157 10.9576 19.0225 10.7339 21.8796 10.7339C24.4861 10.7339 26.9673 10.9576 29.3231 11.4048C31.679 11.8521 33.7843 12.5229 35.6389 13.4174C37.5437 14.3119 39.0223 15.4797 40.075 16.9209C41.1777 18.3123 41.7291 19.9771 41.7291 21.9151C41.7291 22.1139 41.7291 22.3375 41.7291 22.586C41.7291 22.8345 41.704 23.0084 41.6539 23.1078H28.7968V22.586C28.7968 21.7412 28.446 21.0455 27.7442 20.4989C27.0926 19.9522 26.2405 19.5547 25.1878 19.3062C24.1352 19.008 22.9573 18.8589 21.654 18.8589C21.0525 18.8589 20.3006 18.9086 19.3984 19.008C18.5463 19.0577 17.6941 19.182 16.842 19.3807C16.04 19.5795 15.3633 19.8777 14.8119 20.2752C14.2606 20.6728 13.9849 21.2194 13.9849 21.9151C13.9849 22.7599 14.4611 23.406 15.4134 23.8532C16.3658 24.3005 17.619 24.6483 19.1728 24.8968C20.7267 25.1453 22.431 25.4186 24.2856 25.7167C26.441 26.0646 28.5963 26.4622 30.7517 26.9094C32.9572 27.307 34.9622 27.9281 36.7667 28.7729C38.6213 29.6177 40.1 30.8104 41.2028 32.3509C42.3557 33.8417 42.9321 35.8544 42.9321 38.3888C42.9321 40.9232 42.3807 43.06 41.278 44.7993C40.1752 46.5386 38.6464 47.93 36.6915 48.9736C34.7367 49.9675 32.4309 50.6881 29.7743 51.1353C27.1678 51.5826 24.3608 51.8062 21.3533 51.8062Z" fill="#595959"/>
<path d="M62.596 51.8062C57.5835 51.8062 53.774 50.539 51.1675 48.0046C48.561 45.4702 47.2577 41.6189 47.2577 36.4507V11.6284H60.3404V34.5872C60.3404 35.8295 60.4907 36.9228 60.7915 37.867C61.1424 38.7615 61.6186 39.5069 62.2201 40.1032C62.8717 40.6995 63.6486 41.1468 64.5509 41.445C65.5032 41.7431 66.5559 41.8922 67.7087 41.8922C69.413 41.8922 70.9418 41.5195 72.2952 40.7741C73.6987 40.0287 74.8014 39.0099 75.6034 37.7179C76.4054 36.4258 76.8064 34.9599 76.8064 33.32V11.6284H89.8891V50.9117H79.2124L78.3102 44.7993H77.7087C76.5558 46.3895 75.1774 47.7064 73.5734 48.75C71.9694 49.7936 70.2401 50.5638 68.3854 51.0608C66.5308 51.5577 64.601 51.8062 62.596 51.8062Z" fill="#595959"/>
<path d="M96.5344 65V11.6284H107.211L108.264 17.3681H108.865C110.519 14.9828 112.524 13.2932 114.88 12.2993C117.286 11.2557 119.893 10.7339 122.7 10.7339C126.409 10.7339 129.642 11.4794 132.399 12.9702C135.206 14.4113 137.386 16.6476 138.94 19.6789C140.494 22.7102 141.271 26.5864 141.271 31.3073C141.271 35.9289 140.494 39.7554 138.94 42.7867C137.386 45.818 135.231 48.0791 132.474 49.57C129.767 51.0608 126.609 51.8062 123 51.8062C121.346 51.8062 119.717 51.6074 118.113 51.2099C116.509 50.862 115.03 50.3154 113.677 49.57C112.324 48.7748 111.171 47.781 110.218 46.5883H109.617V65H96.5344ZM118.79 41.8922C120.945 41.8922 122.675 41.5195 123.978 40.7741C125.331 39.979 126.334 38.8609 126.985 37.4197C127.637 35.9289 127.963 34.1896 127.963 32.2018V30.2638C127.963 28.276 127.637 26.5615 126.985 25.1204C126.334 23.6296 125.331 22.5115 123.978 21.7661C122.624 20.9709 120.895 20.5734 118.79 20.5734C116.685 20.5734 114.955 20.9958 113.602 21.8406C112.249 22.6854 111.221 23.8781 110.519 25.4186C109.868 26.9094 109.542 28.6735 109.542 30.711V31.8291C109.542 33.32 109.717 34.6865 110.068 35.9289C110.469 37.1713 111.046 38.2397 111.797 39.1342C112.599 39.979 113.577 40.6498 114.73 41.1468C115.883 41.6437 117.236 41.8922 118.79 41.8922Z" fill="#595959"/>
<path d="M168.28 51.8062C163.317 51.8062 159.032 51.0856 155.423 49.6445C151.864 48.1537 149.107 45.8926 147.152 42.8612C145.247 39.8299 144.295 35.9537 144.295 31.2328C144.295 26.6112 145.247 22.7848 147.152 19.7534C149.057 16.7221 151.764 14.461 155.272 12.9702C158.781 11.4794 162.941 10.7339 167.753 10.7339C172.666 10.7339 176.851 11.4545 180.31 12.8956C183.768 14.3368 186.4 16.5482 188.204 19.5298C190.009 22.5115 190.911 26.3131 190.911 30.9346V33.8417H157.753C157.854 35.9289 158.28 37.6682 159.032 39.0596C159.834 40.4511 161.012 41.4946 162.565 42.1904C164.119 42.8861 166.049 43.2339 168.355 43.2339C169.658 43.2339 170.861 43.0849 171.964 42.7867C173.067 42.4885 174.044 42.0661 174.896 41.5195C175.748 40.9729 176.4 40.3268 176.851 39.5814C177.352 38.836 177.628 37.9664 177.678 36.9725H190.761C190.761 39.3081 190.235 41.3953 189.182 43.2339C188.129 45.0726 186.6 46.638 184.595 47.93C182.641 49.1724 180.285 50.1414 177.528 50.8372C174.771 51.4832 171.688 51.8062 168.28 51.8062ZM157.829 26.8349H177.152C177.152 25.5925 176.926 24.5241 176.475 23.6296C176.074 22.6854 175.473 21.8903 174.671 21.2443C173.869 20.5982 172.916 20.1261 171.814 19.828C170.711 19.4801 169.508 19.3062 168.205 19.3062C166.099 19.3062 164.32 19.6044 162.866 20.2007C161.413 20.797 160.26 21.6667 159.408 22.8096C158.606 23.9029 158.079 25.2446 157.829 26.8349Z" fill="#595959"/>
<path d="M195.738 50.9117V11.6284H206.415L207.317 17.9644H207.918C208.57 16.4736 209.422 15.1816 210.475 14.0883C211.527 12.995 212.755 12.1502 214.159 11.5539C215.612 10.9576 217.166 10.6594 218.82 10.6594C219.773 10.6594 220.65 10.7339 221.452 10.883C222.304 11.0321 223.031 11.2309 223.632 11.4794V22.2878H218.369C216.715 22.2878 215.287 22.5363 214.084 23.0333C212.881 23.4805 211.878 24.1762 211.076 25.1204C210.324 26.0149 209.748 27.0833 209.347 28.3257C208.996 29.568 208.821 30.9346 208.821 32.4255V50.9117H195.738Z" fill="#595959"/>
<path d="M242.907 51.8062C239.95 51.8062 237.469 51.4335 235.464 50.6881C233.459 49.893 231.955 48.6755 230.953 47.0355C229.95 45.3459 229.449 43.1346 229.449 40.4014V20.7225H222.983V11.6284H229.9L232.532 0H242.532V11.6284H251.93V20.7225H242.532V37.6433C242.532 39.2833 242.857 40.5505 243.509 41.445C244.211 42.2898 245.539 42.7122 247.494 42.7122H251.93V50.4645C251.278 50.7129 250.401 50.9365 249.298 51.1353C248.196 51.3341 247.068 51.4832 245.915 51.5826C244.762 51.7317 243.76 51.8062 242.907 51.8062Z" fill="#595959"/>
<path d="M278.573 51.8062C273.611 51.8062 269.325 51.0856 265.716 49.6445C262.157 48.1537 259.401 45.8926 257.446 42.8612C255.541 39.8299 254.589 35.9537 254.589 31.2328C254.589 26.6112 255.541 22.7848 257.446 19.7534C259.35 16.7221 262.057 14.461 265.566 12.9702C269.075 11.4794 273.235 10.7339 278.047 10.7339C282.959 10.7339 287.145 11.4545 290.603 12.8956C294.062 14.3368 296.694 16.5482 298.498 19.5298C300.303 22.5115 301.205 26.3131 301.205 30.9346V33.8417H268.047C268.147 35.9289 268.573 37.6682 269.325 39.0596C270.127 40.4511 271.305 41.4946 272.859 42.1904C274.413 42.8861 276.343 43.2339 278.649 43.2339C279.952 43.2339 281.155 43.0849 282.258 42.7867C283.36 42.4885 284.338 42.0661 285.19 41.5195C286.042 40.9729 286.694 40.3268 287.145 39.5814C287.646 38.836 287.922 37.9664 287.972 36.9725H301.054C301.054 39.3081 300.528 41.3953 299.476 43.2339C298.423 45.0726 296.894 46.638 294.889 47.93C292.934 49.1724 290.578 50.1414 287.821 50.8372C285.065 51.4832 281.982 51.8062 278.573 51.8062ZM268.122 26.8349H287.446C287.446 25.5925 287.22 24.5241 286.769 23.6296C286.368 22.6854 285.766 21.8903 284.964 21.2443C284.162 20.5982 283.21 20.1261 282.107 19.828C281.004 19.4801 279.801 19.3062 278.498 19.3062C276.393 19.3062 274.614 19.6044 273.16 20.2007C271.706 20.797 270.553 21.6667 269.701 22.8096C268.899 23.9029 268.373 25.2446 268.122 26.8349Z" fill="#595959"/>
<path d="M319.189 51.8062C317.184 51.8062 315.255 51.6323 313.4 51.2844C311.545 50.9365 309.891 50.3402 308.438 49.4954C306.984 48.6506 305.856 47.5076 305.054 46.0665C304.252 44.5757 303.851 42.7122 303.851 40.4759C303.851 37.4943 304.578 35.1089 306.032 33.32C307.485 31.4813 309.565 30.1147 312.272 29.2202C315.029 28.276 318.262 27.6548 321.971 27.3567C325.731 27.0088 329.916 26.8349 334.528 26.8349V25.0459C334.528 23.7041 334.227 22.6357 333.625 21.8406C333.024 20.9958 332.122 20.3746 330.919 19.9771C329.716 19.5298 328.212 19.3062 326.407 19.3062C324.954 19.3062 323.6 19.4553 322.347 19.7534C321.144 20.0019 320.167 20.3995 319.415 20.9461C318.713 21.4927 318.362 22.1885 318.362 23.0333V23.6296H305.28C305.23 23.4308 305.204 23.2569 305.204 23.1078C305.204 22.909 305.204 22.6854 305.204 22.4369C305.204 20.1013 306.032 18.0638 307.686 16.3245C309.34 14.5356 311.771 13.169 314.979 12.2248C318.237 11.2309 322.172 10.7339 326.783 10.7339C331.094 10.7339 334.803 11.1812 337.911 12.0757C341.019 12.9205 343.4 14.2871 345.054 16.1755C346.758 18.0638 347.61 20.5485 347.61 23.6296V39.8796C347.61 40.7244 347.811 41.4201 348.212 41.9667C348.663 42.4637 349.289 42.7122 350.091 42.7122H353.4V50.4645C352.748 50.7129 351.746 50.9862 350.392 51.2844C349.039 51.6323 347.51 51.8062 345.806 51.8062C343.701 51.8062 341.946 51.5577 340.543 51.0608C339.189 50.6135 338.112 49.9924 337.31 49.1972C336.558 48.4021 336.006 47.4828 335.655 46.4392H335.129C333.926 47.4828 332.548 48.427 330.994 49.2718C329.44 50.0669 327.686 50.6881 325.731 51.1353C323.776 51.5826 321.595 51.8062 319.189 51.8062ZM323.475 43.2339C324.628 43.2339 325.831 43.0849 327.084 42.7867C328.387 42.4885 329.59 42.0413 330.693 41.445C331.846 40.8486 332.773 40.1281 333.475 39.2833C334.177 38.3888 334.528 37.37 334.528 36.2271V33.7672C330.618 33.7672 327.36 33.966 324.753 34.3635C322.147 34.7611 320.192 35.3823 318.889 36.2271C317.585 37.0222 316.934 38.0906 316.934 39.4323C316.934 40.3765 317.234 41.1468 317.836 41.7431C318.437 42.2898 319.239 42.6873 320.242 42.9358C321.244 43.1346 322.322 43.2339 323.475 43.2339Z" fill="#595959"/>
<path d="M355.376 50.9117V11.6284H366.053L366.955 17.6663H367.557C368.71 16.0761 370.038 14.784 371.542 13.7901C373.045 12.7466 374.7 11.9763 376.504 11.4794C378.309 10.9824 380.138 10.7339 381.993 10.7339C385.251 10.7339 387.958 11.3054 390.113 12.4484C392.318 13.5914 393.973 15.3307 395.075 17.6663H395.677C396.83 16.0761 398.158 14.784 399.662 13.7901C401.216 12.7466 402.895 11.9763 404.699 11.4794C406.504 10.9824 408.358 10.7339 410.263 10.7339C413.471 10.7339 416.153 11.3054 418.308 12.4484C420.514 13.5417 422.168 15.2064 423.271 17.4427C424.424 19.6789 425 22.5115 425 25.9404V50.9117H411.917V27.8784C411.917 26.6361 411.767 25.5677 411.466 24.6732C411.165 23.7787 410.714 23.0333 410.113 22.4369C409.562 21.8406 408.86 21.3933 408.008 21.0952C407.206 20.797 406.278 20.6479 405.226 20.6479C403.622 20.6479 402.168 21.0206 400.865 21.7661C399.612 22.5115 398.609 23.5302 397.857 24.8222C397.105 26.0646 396.729 27.5057 396.729 29.1456V50.9117H383.647V27.8784C383.647 26.6361 383.496 25.5677 383.196 24.6732C382.895 23.7787 382.444 23.0333 381.842 22.4369C381.291 21.8406 380.589 21.3933 379.737 21.0952C378.935 20.797 378.008 20.6479 376.955 20.6479C375.351 20.6479 373.898 21.0206 372.594 21.7661C371.341 22.5115 370.339 23.5302 369.587 24.8222C368.835 26.0646 368.459 27.5057 368.459 29.1456V50.9117H355.376Z" fill="#595959"/>
</svg>
